HIERARCHY
ROOT SimulationBone
{
	OFFSET 0.000000 0.000000 0.000000
	CHANNELS 6 Xposition Yposition Zposition Zrotation Yrotation Xrotation 
	JOINT Hips
	{
		OFFSET 0.000000 0.000000 0.000000
		CHANNELS 6 Xposition Yposition Zposition Zrotation Yrotation Xrotation 
		JOINT RightUpLeg
		{
			OFFSET 0.103461 1.857818 10.548512
			CHANNELS 3 Zrotation Yrotation Xrotation
			JOINT RightLeg
			{
				OFFSET 43.500000 -0.000019 0.000004
				CHANNELS 3 Zrotation Yrotation Xrotation
				JOINT RightFoot
				{
					OFFSET 42.372200 0.000011 0.000000
					CHANNELS 3 Zrotation Yrotation Xrotation
					JOINT RightToe
					{
						OFFSET 17.300009 0.000002 0.000004
						CHANNELS 3 Zrotation Yrotation Xrotation
						End Site
						{
							OFFSET 0.000000 0.000000 0.000000
						}
					}
				}
			}
		}
		JOINT LeftUpLeg
		{
			OFFSET 0.103461 1.857838 -10.548504
			CHANNELS 3 Zrotation Yrotation Xrotation
			JOINT LeftLeg
			{
				OFFSET 43.500042 -0.000038 0.000017
				CHANNELS 3 Zrotation Yrotation Xrotation
				JOINT LeftFoot
				{
					OFFSET 42.372253 -0.000008 0.000015
					CHANNELS 3 Zrotation Yrotation Xrotation
					JOINT LeftToe
					{
						OFFSET 17.299995 -0.000004 0.000004
						CHANNELS 3 Zrotation Yrotation Xrotation
						End Site
						{
							OFFSET 0.000000 0.000000 0.000000
						}
					}
				}
			}
		}
		JOINT Spine
		{
			OFFSET 6.901970 -2.603733 -0.000002
			CHANNELS 3 Zrotation Yrotation Xrotation
			JOINT Spine1
			{
				OFFSET 12.588097 0.000016 0.000005
				CHANNELS 3 Zrotation Yrotation Xrotation
				JOINT Spine2
				{
					OFFSET 12.343206 -0.000008 -0.000008
					CHANNELS 3 Zrotation Yrotation Xrotation
					JOINT Neck
					{
						OFFSET 25.832890 -0.000023 0.000008
						CHANNELS 3 Zrotation Yrotation Xrotation
						JOINT Head
						{
							OFFSET 11.766625 0.000019 -0.000006
							CHANNELS 3 Zrotation Yrotation Xrotation
							End Site
							{
								OFFSET 0.000000 0.000000 0.000000
							}
						}
					}
					JOINT RightShoulder
					{
						OFFSET 19.745903 -1.480385 6.000111
						CHANNELS 3 Zrotation Yrotation Xrotation
						JOINT RightArm
						{
							OFFSET 11.284122 -0.000021 -0.000025
							CHANNELS 3 Zrotation Yrotation Xrotation
							JOINT RightForeArm
							{
								OFFSET 33.000057 -0.000001 0.000032
								CHANNELS 3 Zrotation Yrotation Xrotation
								JOINT RightHand
								{
									OFFSET 25.200003 0.000023 0.000006
									CHANNELS 3 Zrotation Yrotation Xrotation
									End Site
									{
										OFFSET 0.000000 0.000000 0.000000
									}
								}
							}
						}
					}
					JOINT LeftShoulder
					{
						OFFSET 19.746098 -1.480366 -6.000072
						CHANNELS 3 Zrotation Yrotation Xrotation
						JOINT LeftArm
						{
							OFFSET 11.284136 -0.000004 -0.000006
							CHANNELS 3 Zrotation Yrotation Xrotation
							JOINT LeftForeArm
							{
								OFFSET 33.000092 0.000029 0.000002
								CHANNELS 3 Zrotation Yrotation Xrotation
								JOINT LeftHand
								{
									OFFSET 25.199776 0.000140 0.000420
									CHANNELS 3 Zrotation Yrotation Xrotation
									End Site
									{
										OFFSET 0.000000 0.000000 0.000000
									}
								}
							}
						}
					}
				}
			}
		}
	}
}
MOTION
Frames: 6
Frame Time: 0.016667
-248.313148 0.000000 434.302128 180.000000 -80.542310 180.000000 -3.154301 88.325740 -0.344116 91.190825 2.091775 -178.267087 154.265732 2.953034 -178.758421 -34.639119 0.042868 1.118298 82.690732 -0.915084 -0.592184 21.454557 0.003098 0.000015 167.438535 7.689181 -172.039871 -33.758422 1.080311 -9.375021 91.679717 6.984573 4.461617 21.454552 -0.003084 0.000001 10.016070 1.664504 0.729708 10.046199 3.259347 1.601892 9.727663 3.268839 1.582150 21.982209 -7.348900 13.530959 -19.427567 -16.481476 21.155906 177.675619 -71.766572 1.034963 -23.672154 55.837009 19.835578 -52.089998 -20.026562 2.186717 1.851180 -6.797286 27.062625 -177.159635 82.726207 4.454925 -14.863921 -53.460497 -51.280107 -39.065717 14.815220 -1.421945 -1.091319 16.891683 13.247650 
-248.494193 0.000000 433.974532 180.000000 -83.309674 180.000000 -3.424219 88.550133 -0.555142 90.702771 1.824089 -178.902375 154.207667 2.892005 178.399255 -33.856349 0.174517 -2.178304 83.544885 1.103039 -1.917233 21.454558 0.003100 0.000015 167.433645 8.059206 -171.407122 -33.129869 1.305917 -8.517359 91.240726 6.469345 4.818048 21.454550 -0.003078 0.000001 10.027128 1.721320 0.919605 10.074877 3.356011 1.986514 9.756394 3.367829 1.966182 21.450740 -7.511230 13.483830 -19.549555 -16.739349 21.180811 178.473417 -71.761195 0.214421 -22.684804 56.449322 20.347372 -53.068301 -19.857892 2.209227 1.572720 -7.056597 27.249148 176.783203 82.997943 -1.664896 -14.272821 -52.276805 -52.035017 -37.403761 14.511550 -1.360279 -1.133368 14.036239 14.594460 
-248.619030 0.000000 433.671900 180.000000 -86.056209 180.000000 -3.600298 88.755444 -0.713961 90.390583 1.559440 -179.143017 154.284562 2.846051 175.527046 -33.607101 0.330312 -4.902751 84.153082 2.877284 -2.536400 21.454558 0.003107 0.000017 167.781900 8.322499 -171.243896 -32.393639 1.681970 -7.187845 90.965917 5.634380 5.281029 21.454551 -0.003087 -0.000000 10.036193 1.780805 0.977958 10.096156 3.469475 2.108600 9.777651 3.482013 2.087588 21.044179 -7.534870 13.480295 -19.621874 -16.919450 21.220189 178.972844 -71.826560 -0.300693 -21.066967 56.892532 21.464407 -53.890373 -19.695708 2.227193 1.448603 -7.169662 27.334270 172.400911 83.212313 -6.087721 -14.329397 -51.115775 -52.312344 -35.686133 14.107668 -1.292568 -1.945525 10.067438 13.514096 
-248.688678 0.000000 433.393684 180.000000 -88.778173 180.000000 -3.708428 88.938629 -0.825689 90.190912 1.324633 -178.996215 154.302962 2.725493 173.019401 -34.142021 0.561695 -6.344329 84.432065 3.863078 -2.626822 21.454558 0.003112 0.000018 168.391566 8.503690 -171.164677 -31.592510 2.062225 -5.591922 90.805076 4.624481 5.834340 21.454553 -0.003098 -0.000001 10.024617 1.847611 0.931319 10.073277 3.607130 2.021013 9.754687 3.619119 1.999175 20.756294 -7.371249 13.475551 -19.606145 -17.049887 21.229473 179.024804 -71.954809 -0.356732 -19.025228 57.107172 23.127199 -54.433929 -19.542501 2.236020 1.443488 -7.107940 27.295573 170.341651 83.420389 -8.161092 -14.852132 -50.026931 -52.343024 -34.045791 13.653660 -1.226608 -3.075189 5.869376 10.404017 
-248.704456 0.000000 433.138308 0.000000 -88.528824 0.000000 -3.774727 89.102459 -0.903289 90.044676 1.128577 -178.538380 154.118975 2.444597 171.222304 -35.603331 0.940468 -6.134751 84.351942 3.740172 -2.483687 21.454557 0.003107 0.000017 169.153140 8.620935 -170.870190 -30.778503 2.322979 -3.928066 90.684838 3.578719 6.455878 21.454553 -0.003097 -0.000001 9.979421 1.920406 0.818992 9.981055 3.763008 1.801632 9.662355 3.773670 1.778850 20.567968 -7.000922 13.427373 -19.476238 -17.157813 21.167836 178.559546 -72.126676 0.118174 -16.832536 57.062237 25.192268 -54.579556 -19.399622 2.231449 1.498989 -6.887195 27.101926 170.834815 83.653069 -7.655523 -15.618192 -49.065310 -52.331068 -32.609053 13.219411 -1.167492 -4.118708 2.263161 5.866902 
-248.667922 0.000000 432.903272 0.000000 -85.870316 0.000000 -3.812070 89.246117 -0.959340 89.932963 0.973869 -177.943584 153.806502 1.991498 170.226428 -37.662629 1.392402 -4.914351 84.003970 2.901539 -2.367712 21.454557 0.003101 0.000016 169.991961 8.712709 -170.259595 -29.990588 2.463262 -2.366389 90.559462 2.609694 7.095337 21.454553 -0.003091 0.000000 9.906260 1.990540 0.689097 9.831901 3.915317 1.545836 9.513099 3.924441 1.522125 20.434635 -6.481425 13.318120 -19.245900 -17.242620 21.016282 177.723817 -72.306516 0.973380 -14.768113 56.783746 27.435658 -54.256710 -19.266582 2.210988 1.538742 -6.618793 26.678576 173.209689 83.906916 -5.250607 -16.367676 -48.287114 -52.357419 -31.422680 12.870811 -1.120602 -4.794457 -0.449175 0.929390 
